<svg width="60" height="65" viewBox="0 0 60 65" fill="none" xmlns="http://www.w3.org/2000/svg">
<path fill-rule="evenodd" clip-rule="evenodd" d="M45.1578 0.536621C45.69 2.55054 46.2343 4.38846 46.6567 6.26671C48.1813 13.062 50.3365 19.5785 52.5515 26.0704C54.2503 31.0451 55.9952 35.9969 57.7439 40.9451C58.1035 41.9635 58.6061 42.9068 58.9945 43.9096C59.3949 44.9464 59.1958 45.5211 58.2526 45.7393C56.0981 46.2352 54.5175 47.8769 53.1874 49.7378C51.4312 52.1954 51.1056 55.1378 52.1079 58.2197C52.6 59.734 52.2321 60.4362 50.8604 60.6204C46.6113 61.1952 42.3675 61.8185 38.1138 62.3337C35.1198 62.6967 32.1122 62.9011 29.1122 63.1999C26.6769 63.4419 24.2476 63.7682 21.8093 63.9635C19.4232 64.1542 17.0303 64.4961 14.523 64.145C13.8046 61.9642 13.0582 59.7808 12.3618 57.5725C11.0219 53.3302 9.68271 49.0878 8.39503 44.8217C7.36171 41.397 6.39727 37.9412 5.42148 34.4927C4.2625 30.3943 3.1179 26.2913 1.97935 22.1837C1.34195 19.8847 0.749213 17.5683 0.0943981 15.2766C-0.0789577 14.6698 0.00582598 14.205 0.192051 13.6294C0.674268 12.148 1.56149 11.0627 2.44417 9.97371C3.7924 8.3118 5.18681 6.70762 6.94611 5.66996C8.43364 4.79271 9.91663 4.14554 11.6525 4.06213C15.4867 3.87604 19.3081 3.34621 23.1363 2.97221C27.097 2.58538 31.0615 2.2508 35.0192 1.83097C37.9306 1.52205 40.8345 1.11322 43.7422 0.744723C44.1729 0.692473 44.6014 0.619121 45.1578 0.536621ZM10.9038 5.69105C13.2149 13.1252 15.5125 20.3595 17.7123 27.6388C19.9122 34.9153 22.0152 42.2339 24.156 49.5187C29.8692 48.6414 35.4862 48.0364 41.0185 46.8567C46.5545 45.6769 52.1768 45.3543 57.7068 44.2066C56.2443 40.0761 54.8415 36.1033 53.432 32.1323C53.1231 31.2569 52.7741 30.4025 52.4796 29.5234C51.1238 25.4644 49.743 21.4183 48.4493 17.3327C47.7945 15.2665 47.3001 13.1271 46.7369 11.0178C46.5636 10.3679 46.3986 9.71245 46.2237 9.05886C45.7006 7.10178 45.1722 5.14471 44.6491 3.18854C44.559 2.85212 44.4765 2.51388 44.4038 2.23246C33.2371 3.38654 22.159 4.53147 10.9038 5.69105ZM9.40337 5.97429C9.25576 5.99262 9.07484 5.97246 8.91813 6.03846C8.62971 6.15855 8.35794 6.3272 8.0786 6.47845C5.78107 7.72053 4.07779 9.86004 2.43054 12.0555C1.36618 13.4735 0.821877 15.0933 1.79312 16.9541C1.90668 17.1741 1.97179 17.4372 2.03235 17.6911C3.34501 23.0582 4.58574 28.4537 6.27312 33.6805C7.4798 37.4214 8.51009 41.243 9.65318 45.0124C10.7221 48.5342 11.819 52.0423 12.9326 55.543C13.5715 57.5569 14.2664 59.5424 15.0083 61.7507C16.5374 56.5147 19.4618 53.0561 23.016 50.3079C21.6117 45.2599 20.2779 40.2869 18.8433 35.3599C17.3649 30.277 15.7948 25.2334 14.2482 20.1808C13.4466 17.5573 12.657 14.9264 11.7804 12.3387C11.0552 10.2047 10.6585 7.88096 9.40337 5.97429ZM54.6212 46.3635C53.8612 46.3635 53.4811 46.3241 53.1072 46.3709C51.7219 46.5395 50.335 46.7054 48.9542 46.9273C44.4553 47.6514 39.9602 48.4022 35.4628 49.1401C34.5536 49.2877 33.6399 49.3995 32.7315 49.548C30.2235 49.9642 27.7162 50.3776 25.2113 50.8268C24.8328 50.8946 24.4604 51.1008 24.1144 51.3126C21.3006 53.0213 19.2453 55.7337 17.4905 58.8082C16.8441 59.9393 16.4231 61.1998 16.679 62.6298C20.4361 63.1 48.2797 59.987 50.8657 58.81C49.6567 53.7748 50.5765 49.559 54.6212 46.3635Z" fill="#008B47"/>
<path fill-rule="evenodd" clip-rule="evenodd" d="M10.9038 5.69112C22.1583 4.53062 33.2372 3.38571 44.4046 2.23438C44.4773 2.51579 44.5598 2.85404 44.6499 3.19046C45.173 5.14754 45.7014 7.10462 46.2245 9.06078C46.3986 9.71437 46.5644 10.3698 46.7377 11.0197C47.301 13.1289 47.7945 15.2684 48.4501 17.3346C49.7438 21.4202 51.1246 25.4663 52.4804 29.5253C52.7749 30.4044 53.1239 31.2588 53.4328 32.1342C54.8416 36.1052 56.2451 40.078 57.7076 44.2085C52.1776 45.3562 46.5553 45.6789 41.0193 46.8586C35.4863 48.0384 29.87 48.6434 24.1568 49.5206C22.016 42.2359 19.9138 34.9163 17.7131 27.6407C15.5125 20.3596 13.215 13.1262 10.9038 5.69112Z" fill="white"/>
<path fill-rule="evenodd" clip-rule="evenodd" d="M9.40397 5.9743C10.6591 7.88097 11.0558 10.2047 11.7817 12.3406C12.6584 14.9274 13.4479 17.5582 14.2496 20.1826C15.7962 25.2353 17.3662 30.2788 18.8447 35.3617C20.2792 40.2888 21.6123 45.2617 23.0173 50.3098C19.4632 53.0579 16.5381 56.5174 15.0096 61.7525C14.2678 59.5443 13.5728 57.5588 12.9339 55.5448C11.8203 52.0441 10.7234 48.5351 9.65453 45.0142C8.51145 41.2449 7.48115 37.4233 6.27448 33.6824C4.5871 28.4555 3.34712 23.06 2.0337 17.693C1.97314 17.44 1.90803 17.1769 1.79448 16.956C0.823231 15.0951 1.36677 13.4754 2.43189 12.0573C4.07915 9.86187 5.78243 7.7233 8.07996 6.48031C8.3593 6.32906 8.63105 6.15946 8.91947 6.0403C9.07541 5.97246 9.25635 5.99264 9.40397 5.9743Z" fill="#008B47"/>
<path fill-rule="evenodd" clip-rule="evenodd" d="M54.6211 46.3636C50.5756 49.5591 49.6558 53.7758 50.8655 58.8101C48.2796 59.9871 20.4359 63.1001 16.6789 62.6299C16.423 61.1999 16.8447 59.9394 17.4904 58.8083C19.2452 55.7338 21.3005 53.0214 24.1143 51.3127C24.4602 51.1 24.8327 50.8947 25.2112 50.8269C27.7161 50.3786 30.2234 49.9652 32.7313 49.5481C33.639 49.3996 34.5527 49.2878 35.4626 49.1402C39.96 48.4023 44.4552 47.6515 48.9541 46.9274C50.3349 46.7055 51.7217 46.5387 53.1071 46.3709C53.4818 46.3242 53.861 46.3636 54.6211 46.3636Z" fill="white"/>
<path fill-rule="evenodd" clip-rule="evenodd" d="M19.3886 13.5782C20.5234 16.1119 21.5324 18.6354 22.1487 21.4377C23.0957 25.1822 22.4189 26.0494 25.8731 25.2354C31.9005 23.5423 37.9846 23.2325 43.8545 22.1407C44.1361 19.1002 42.5683 15.1567 41.6992 12.3361C41.3911 10.9363 41.784 10.6586 40.6826 9.96468C38.84 8.90868 34.4887 9.96011 32.5841 10.1242C28.1306 10.7099 23.7482 12.3728 19.3008 12.8054" fill="#008B47"/>
<path d="M30.3136 40.1025C35.9381 38.5845 41.5953 37.4258 47.3471 36.9144C47.9519 36.8603 47.9565 35.7135 47.3471 35.7685C41.5105 36.2874 35.7716 37.4561 30.0622 38.997C29.4665 39.1574 29.7193 40.262 30.3136 40.1025Z" fill="#008B47"/>
<path d="M32.8368 42.4146C34.9633 42.3898 36.9194 41.6757 38.9572 41.0011C41.3471 40.21 43.7976 40.5042 46.2102 39.9496C46.8097 39.8121 46.5546 38.7076 45.9589 38.8451C43.837 39.3327 41.6833 39.1375 39.5629 39.6416C37.2752 40.1861 35.2108 41.2412 32.8368 41.2687C32.2267 41.2761 32.2259 42.4219 32.8368 42.4146Z" fill="#008B47"/>
<path d="M27.2862 52.4218C34.3582 53.1404 41.2175 50.7388 48.2297 50.1301C48.5923 50.099 48.5946 49.4115 48.2297 49.4426C41.2213 50.0504 34.3506 52.452 27.2862 51.7343C26.9213 51.6976 26.9243 52.3851 27.2862 52.4218Z" fill="#008B47"/>
<path d="M23.6273 55.7822C32.0785 55.8712 40.4814 54.8775 48.8615 53.6436C49.2203 53.5905 49.2249 52.9021 48.8615 52.9561C40.4814 54.19 32.0785 55.1837 23.6273 55.0947C23.2616 55.0911 23.2616 55.7786 23.6273 55.7822Z" fill="#008B47"/>
<path d="M22.113 59.4488C29.864 59.5349 37.8831 58.511 45.5304 56.9921C45.8915 56.9206 45.7371 56.2579 45.3798 56.3294C37.8066 57.8327 29.7974 58.8456 22.1138 58.7603C21.7474 58.7567 21.7474 59.4451 22.113 59.4488Z" fill="#008B47"/>
</svg>
