<svg width="56" height="72" viewBox="0 0 56 72" fill="none" xmlns="http://www.w3.org/2000/svg">
<path d="M56 24.7509C56 11.5272 43.4644 0.807678 28 0.807678C12.5356 0.807678 0 11.5272 0 24.7509C0 31.7684 4.98887 38.0782 11.3442 42.4552C15.6763 45.4397 18.6322 49.6371 19.4577 54.3408L19.746 55.9828H37.873L37.8939 55.6703C38.2365 50.5866 40.9816 45.8219 45.554 42.5597C51.6715 38.1968 56 31.8566 56 24.7509Z" fill="#F6BC3F"/>
<path d="M35.1464 47.8743C36.1038 46.203 37.384 44.6307 38.6222 43.1085C39.3246 42.2451 40.0503 41.3533 40.7181 40.4431C43.0801 37.2278 44.12 34.3892 43.8982 31.7673C43.7281 29.7454 42.6636 28.1513 41.052 27.5024C39.2445 26.7751 37.2201 27.3456 35.7206 28.2341C35.3325 27.3162 34.8297 26.6259 34.173 26.1011C32.0883 24.4319 28.7702 24.7999 26.7643 26.1196C25.3818 27.0298 24.5046 28.2765 23.9501 29.508C23.3439 29.1258 22.6933 28.8547 22.012 28.7077C18.8035 28.0163 15.6493 30.2223 14.7178 32.7179C13.9182 34.8574 14.2299 37.3312 15.6702 40.2787C17.3274 43.6682 19.8472 46.6777 22.0946 49.1744L22.2276 49.3214C23.4622 50.6922 24.7214 52.0924 25.5112 53.5841H17.155V60.043H21.6867V64.9329C21.6867 68.3475 24.9235 71.1153 28.9156 71.1153C32.9076 71.1153 36.1444 68.3475 36.1444 64.9329V60.043H39.8125V53.5841H33.5804C33.4473 51.3041 34.4182 49.145 35.1464 47.8743ZM34.3455 37.4368C34.1989 37.7722 33.8897 38.3373 33.4707 38.3634C32.9693 38.4048 32.6341 37.6535 32.5467 37.1788C32.0846 34.6897 33.0543 32.045 35.0441 30.1896C35.5949 32.597 35.3534 35.1416 34.3455 37.4368ZM24.4553 31.9731C24.4824 31.8381 24.5144 31.6976 24.5489 31.555C25.0011 32.0722 25.3338 32.6035 25.5568 33.0119C26.4858 34.7126 26.9417 36.6028 26.8752 38.4788C26.8555 39.0614 26.7236 39.4141 26.4735 39.5557C26.1803 39.7212 25.6936 39.584 25.4213 39.351C25.059 39.0407 24.8767 38.5572 24.7338 38.0803C24.1411 36.0987 24.0438 33.9874 24.4553 31.9731ZM26.8653 53.5852C26.0225 51.7712 24.5551 50.1369 23.2047 48.6365L23.0716 48.4895C20.876 46.0494 18.4166 43.114 16.8173 39.8431C15.5027 37.1537 15.2045 34.9369 15.9043 33.0652C16.6461 31.0792 19.2138 29.2391 21.7187 29.7802C22.4149 29.9305 23.0174 30.2342 23.5324 30.611C23.4031 31.0193 23.3045 31.4124 23.2293 31.7782C22.7858 33.9504 22.8893 36.2271 23.5312 38.3634C23.7197 38.9938 23.9748 39.6461 24.5563 40.1437C25.1724 40.6717 26.2899 40.9701 27.1487 40.4855C28.074 39.9618 28.1122 38.8719 28.1245 38.5148C28.1972 36.4623 27.6982 34.3936 26.6817 32.5349C26.1975 31.6475 25.6135 30.8908 24.9555 30.2833C25.4274 29.0943 26.2111 27.8617 27.511 27.0059C29.077 25.9748 31.7495 25.6492 33.3364 26.9199C33.9143 27.3826 34.3492 28.037 34.6856 28.9592C32.0686 31.0672 30.7514 34.3141 31.3157 37.3585C31.5203 38.4625 32.294 39.535 33.5582 39.4653C34.1385 39.4294 34.9468 39.118 35.5087 37.8375C36.6903 35.147 36.8997 32.1397 36.1062 29.3469C37.294 28.5607 39.0756 27.9205 40.5357 28.5085C42.3013 29.2184 42.6044 31.2469 42.655 31.8523C42.8558 34.2259 41.88 36.8402 39.672 39.8453C39.0202 40.7327 38.3031 41.6147 37.6094 42.4672C36.344 44.022 35.0355 45.6303 34.0338 47.3778C33.2465 48.7519 32.2066 51.0798 32.3359 53.5863H26.8653V53.5852Z" fill="black"/>
</svg>
