<svg width="27" height="50" viewBox="0 0 27 50" fill="none" xmlns="http://www.w3.org/2000/svg">
<path fill-rule="evenodd" clip-rule="evenodd" d="M7.50431 17.5259C6.83231 17.2159 6.0743 16.8819 5.3303 16.5209C4.3083 16.0239 3.3033 15.4869 2.2773 14.9989C-0.267696 13.7859 -0.357702 13.7669 0.455298 11.1319C1.4513 7.90492 2.81031 4.81391 5.54731 2.64791C10.6023 -1.35309 18.6923 -1.14109 23.1763 5.50491C25.0803 8.32691 26.1193 11.5259 26.2483 14.9409C26.3803 18.4449 25.3403 21.6649 23.4413 24.5909C22.2123 26.4869 20.2633 27.2489 18.1543 27.6419C17.0393 27.8509 15.9043 27.9659 14.7733 28.0889C13.0973 28.2709 13.0613 28.2509 12.7183 29.9449C12.3743 31.6459 12.1263 33.3679 11.8043 35.0729C11.4643 36.8699 10.8963 37.1509 9.10331 36.8879C7.57231 36.6629 6.0063 36.6819 4.4573 36.5769C2.9343 36.4739 2.6743 36.1639 3.0163 34.6379C3.7333 31.4389 4.5203 28.2569 5.2273 25.0559C5.4303 24.1299 5.4593 23.1649 5.5593 22.2179C5.6443 21.4269 6.10031 21.1389 6.87031 21.0289C8.40731 20.8099 9.96631 20.6059 11.4463 20.1689C13.7533 19.4899 15.4303 18.0229 16.1593 15.6449C16.7313 13.7789 15.9343 11.8039 14.2573 10.8489C12.8273 10.0359 11.1053 10.4079 10.2143 11.9449C9.5683 13.0599 9.07731 14.3199 8.81031 15.5779C8.62931 16.4149 8.36431 17.0059 7.50431 17.5259ZM4.5203 35.0179C6.5023 35.0609 8.32731 35.1009 10.2933 35.1439C10.4383 34.4249 10.5783 33.7289 10.7153 33.0349C11.0043 31.5639 11.3093 30.0969 11.5743 28.6229C11.7713 27.5259 12.3793 26.9699 13.4983 26.8469C15.0413 26.6769 16.5763 26.4349 18.1113 26.2029C19.6343 25.9729 21.0743 25.4579 22.0033 24.1839C24.4823 20.7819 25.5493 17.0139 24.4763 12.8359C24.1073 11.3959 23.5713 9.99191 23.0373 8.59991C21.2243 3.88691 16.1253 1.00689 11.1803 1.92089C9.0303 2.31789 6.9943 3.05089 5.5413 4.80489C4.7053 5.8159 3.8463 6.85691 3.2643 8.01791C2.5123 9.51891 1.47331 10.9889 1.67231 12.7629C3.49931 13.6309 5.2073 14.4439 7.0333 15.3119C7.4633 14.1889 7.83831 13.2519 8.18131 12.3039C8.62331 11.0779 9.3643 10.0629 10.4573 9.3829C11.9543 8.4509 13.5433 8.43989 15.0553 9.34789C16.8063 10.4009 17.8993 11.8809 17.8133 14.0449C17.6683 17.7299 15.0863 20.9409 11.4683 21.7889C10.0243 22.1279 8.5393 22.2929 7.0183 22.5449C6.1943 26.6639 5.3773 30.7399 4.5203 35.0179Z" fill="#008B47"/>
<path fill-rule="evenodd" clip-rule="evenodd" d="M12.4226 44.5859C11.6006 48.9969 7.41259 50.6909 3.47959 48.6669C1.34859 47.5699 0.5386 45.8189 0.5796 43.5319C0.6166 41.4509 1.4706 39.6639 3.2476 38.7469C5.5116 37.5799 7.9606 37.5219 10.2496 38.9889C12.5336 40.4519 12.6576 42.6589 12.4226 44.5859ZM8.61059 39.7279C7.50359 39.6839 6.5006 39.5789 5.5036 39.6179C3.9236 39.6809 2.4116 41.0219 2.1056 42.5239C1.7186 44.4159 2.5006 46.4299 3.9786 47.1879C5.4106 47.9219 6.9496 48.0839 8.4996 47.6919C10.2696 47.2429 11.3116 45.8059 11.2726 43.9879C11.2636 43.5709 11.2046 43.1539 11.1586 42.7379C11.0066 41.3899 9.79959 40.0119 8.61059 39.7279Z" fill="#008B47"/>
<path fill-rule="evenodd" clip-rule="evenodd" d="M4.5203 35.0179C5.3773 30.7399 6.1943 26.6639 7.0183 22.5449C8.5393 22.2929 10.0243 22.1279 11.4683 21.7889C15.0863 20.9399 17.6683 17.7289 17.8133 14.0449C17.8993 11.8809 16.8063 10.3999 15.0553 9.34791C13.5433 8.43991 11.9543 8.45091 10.4573 9.38291C9.3633 10.0629 8.62331 11.0779 8.18131 12.3039C7.83831 13.2519 7.4633 14.1889 7.0333 15.3119C5.2073 14.4439 3.49931 13.6309 1.67231 12.7629C1.47331 10.9889 2.5123 9.51892 3.2643 8.01792C3.8463 6.85692 4.7053 5.81591 5.5413 4.80491C6.9943 3.05091 9.0293 2.31891 11.1803 1.92091C16.1253 1.00691 21.2253 3.88692 23.0373 8.59992C23.5703 9.99292 24.1063 11.3959 24.4763 12.8359C25.5493 17.0139 24.4833 20.7809 22.0033 24.1839C21.0743 25.4579 19.6353 25.9719 18.1113 26.2029C16.5763 26.4339 15.0413 26.6769 13.4983 26.8469C12.3793 26.9699 11.7713 27.5269 11.5743 28.6229C11.3083 30.0979 11.0043 31.5639 10.7153 33.0349C10.5783 33.7289 10.4383 34.4259 10.2933 35.1439C8.32631 35.1009 6.5023 35.0609 4.5203 35.0179Z" fill="#FFE8CE"/>
<path fill-rule="evenodd" clip-rule="evenodd" d="M8.61025 39.7279C9.79925 40.0119 11.0063 41.3899 11.1583 42.7379C11.2043 43.1539 11.2633 43.5709 11.2723 43.9879C11.3103 45.8059 10.2683 47.2429 8.49925 47.6919C6.94825 48.0849 5.40926 47.9219 3.97826 47.1879C2.49926 46.4299 1.71826 44.4149 2.10526 42.5239C2.41226 41.0219 3.92325 39.6799 5.50325 39.6179C6.49925 39.5789 7.50225 39.6839 8.61025 39.7279Z" fill="#FFE8CE"/>
</svg>
